<svg width="38" height="38" viewBox="0 0 38 38" fill="none" xmlns="http://www.w3.org/2000/svg">
<path fill-rule="evenodd" clip-rule="evenodd" d="M19.0003 0.666992C8.88033 0.666992 0.666992 8.88033 0.666992 19.0003C0.666992 29.1203 8.88033 37.3337 19.0003 37.3337C29.1203 37.3337 37.3337 29.1203 37.3337 19.0003C37.3337 8.88033 29.1203 0.666992 19.0003 0.666992ZM19.0003 6.16699C22.0437 6.16699 24.5003 8.62366 24.5003 11.667C24.5003 14.7103 22.0437 17.167 19.0003 17.167C15.957 17.167 13.5003 14.7103 13.5003 11.667C13.5003 8.62366 15.957 6.16699 19.0003 6.16699ZM8.00034 26.297C10.3653 29.8537 14.417 32.2003 19.0003 32.2003C23.5837 32.2003 27.6353 29.8537 30.0003 26.297C29.9453 22.6487 22.6487 20.6503 19.0003 20.6503C15.3337 20.6503 8.05534 22.6487 8.00034 26.297Z" fill="black" fill-opacity="0.54"/>
</svg>
