<svg width="27" height="27" viewBox="0 0 27 27" fill="none" xmlns="http://www.w3.org/2000/svg">
<path d="M27 13.5C27 6.04416 20.9558 0 13.5 0C6.04415 0 0 6.04416 0 13.5C0 20.2382 4.93675 25.8233 11.3906 26.836V17.4024H7.9629V13.5H11.3906V10.5258C11.3906 7.14234 13.4061 5.27345 16.4898 5.27345C17.9668 5.27345 19.5117 5.53711 19.5117 5.53711V8.85938H17.8094C16.1324 8.85938 15.6094 9.90002 15.6094 10.9676V13.5H19.3535L18.755 17.4024H15.6094V26.836C22.0633 25.8233 27 20.2382 27 13.5Z" fill="#1877F2"/>
<path d="M18.755 17.4023L19.3535 13.5H15.6094V10.9676C15.6094 9.90001 16.1324 8.85937 17.8094 8.85937H19.5117V5.5371C19.5117 5.5371 17.9668 5.27344 16.4898 5.27344C13.4061 5.27344 11.3906 7.14233 11.3906 10.5258V13.5H7.96289V17.4023H11.3906V26.836C12.0884 26.9454 12.7937 27.0002 13.5 27C14.2176 27 14.9221 26.9438 15.6094 26.836V17.4023H18.755Z" fill="white"/>
</svg>
