<svg width="24" height="24" viewBox="0 0 24 24" fill="none" xmlns="http://www.w3.org/2000/svg">
<path d="M19 2H5C3.3 2 2 3.3 2 5V19C2 20.7 3.3 22 5 22H14.1C14.1 20.1 14.1 18.3 14.1 16.4C14.1 16.4 14.1 16.3 14 16.3H12.1C12.1 16.3 12 16.3 12 16.2V14C12.6 14 13.3 14 13.9 14C14 14 13.9 12.1 14 11.6C14 11.4 14.1 11.1 14.2 10.9C14.4 10.3 14.8 9.8 15.3 9.5C15.8 9.2 16.3 9.1 16.9 9C17 9 17.1 9 17.2 9C17.5 9 17.8 9 18.1 9C18.2 9 18.2 9 18.3 9C18.5 9 18.7 9 18.8 9C18.9 9 19 9 19 9V11.2C18.9 11.2 18.9 11.2 18.3 11.2H18.2C18 11.2 17.9 11.2 17.7 11.2C17.6 11.2 17.4 11.2 17.3 11.3C17 11.4 16.8 11.5 16.7 11.8C16.7 11.9 16.6 12.1 16.6 12.2C16.6 12.7 16.6 13.3 16.6 13.8C16.6 13.8 16.6 13.9 16.7 13.9H18.9C18.9 14 18.9 14 18.9 14.1C18.9 14.3 18.9 14.5 18.8 14.6C18.8 14.8 18.8 14.9 18.7 15.1C18.7 15.3 18.7 15.5 18.6 15.6C18.6 15.8 18.6 16 18.5 16.2H16.6C16.6 16.2 16.5 16.2 16.5 16.3V17.6C16.5 19.1 16.5 20.5 16.5 22H19C20.7 22 22 20.7 22 19V5C22 3.3 20.7 2 19 2Z" fill="black"/>
</svg>
