<svg width="16" height="16" viewBox="0 0 16 16" fill="none" xmlns="http://www.w3.org/2000/svg">
<path d="M5.99992 13.9997C5.99992 14.333 6.26659 14.6663 6.66659 14.6663H9.33325C9.73325 14.6663 9.99992 14.333 9.99992 13.9997V13.333H5.99992V13.9997ZM7.99992 1.33301C5.39992 1.33301 3.33325 3.39967 3.33325 5.99967C3.33325 7.59967 4.13325 8.99967 5.33325 9.79967V11.333C5.33325 11.6663 5.59992 11.9997 5.99992 11.9997H9.99992C10.3999 11.9997 10.6666 11.6663 10.6666 11.333V9.79967C11.8666 8.93301 12.6666 7.53301 12.6666 5.99967C12.6666 3.39967 10.5999 1.33301 7.99992 1.33301Z" fill="black"/>
</svg>
