<svg width="16" height="16" viewBox="0 0 16 16" fill="none" xmlns="http://www.w3.org/2000/svg">
<path d="M2.59967 8.00033C2.59967 6.86699 3.53301 5.93366 4.66634 5.93366H7.33301V4.66699H4.66634C2.79967 4.66699 1.33301 6.13366 1.33301 8.00033C1.33301 9.86699 2.79967 11.3337 4.66634 11.3337H7.33301V10.067H4.66634C3.53301 10.067 2.59967 9.13366 2.59967 8.00033ZM5.33301 8.66699H10.6663V7.33366H5.33301V8.66699ZM11.333 4.66699H8.66634V5.93366H11.333C12.4663 5.93366 13.3997 6.86699 13.3997 8.00033C13.3997 9.13366 12.4663 10.067 11.333 10.067H8.66634V11.3337H11.333C13.1997 11.3337 14.6663 9.86699 14.6663 8.00033C14.6663 6.13366 13.1997 4.66699 11.333 4.66699Z" fill="black"/>
</svg>
