<svg width="26" height="37" xmlns="http://www.w3.org/2000/svg">
<circle cx="13" cy="12" r="10" fill="black"/>
<path d="M9.25 11.0527C9.94036 11.0527 10.5 10.4931 10.5 9.80273C10.5 9.11238 9.94036 8.55273 9.25 8.55273C8.55964 8.55273 8 9.11238 8 9.80273C8 10.4931 8.55964 11.0527 9.25 11.0527Z" fill="white"/>
<path d="M11.5 9.05273C12.1904 9.05273 12.75 8.49309 12.75 7.80273C12.75 7.11238 12.1904 6.55273 11.5 6.55273C10.8096 6.55273 10.25 7.11238 10.25 7.80273C10.25 8.49309 10.8096 9.05273 11.5 9.05273Z" fill="white"/>
<path d="M14.5 9.05273C15.1904 9.05273 15.75 8.49309 15.75 7.80273C15.75 7.11238 15.1904 6.55273 14.5 6.55273C13.8096 6.55273 13.25 7.11238 13.25 7.80273C13.25 8.49309 13.8096 9.05273 14.5 9.05273Z" fill="white"/>
<path d="M16.75 11.0527C17.4404 11.0527 18 10.4931 18 9.80273C18 9.11238 17.4404 8.55273 16.75 8.55273C16.0596 8.55273 15.5 9.11238 15.5 9.80273C15.5 10.4931 16.0596 11.0527 16.75 11.0527Z" fill="white"/>
<path d="M15.6699 12.4827C15.2349 11.9727 14.8699 11.5377 14.4299 11.0277C14.1999 10.7577 13.9049 10.4877 13.5549 10.3677C13.4999 10.3477 13.4449 10.3327 13.3899 10.3227C13.2649 10.3027 13.1299 10.3027 12.9999 10.3027C12.8699 10.3027 12.7349 10.3027 12.6049 10.3277C12.5499 10.3377 12.4949 10.3527 12.4399 10.3727C12.0899 10.4927 11.7999 10.7627 11.5649 11.0327C11.1299 11.5427 10.7649 11.9777 10.3249 12.4877C9.66995 13.1427 8.86495 13.8677 9.01495 14.8827C9.15995 15.3927 9.52495 15.8977 10.1799 16.0427C10.5449 16.1177 11.7099 15.8227 12.9499 15.8227H13.0399C14.2799 15.8227 15.445 16.1127 15.8099 16.0427C16.4649 15.8977 16.8299 15.3877 16.9749 14.8827C17.1299 13.8627 16.3249 13.1377 15.6699 12.4827Z" fill="white"/>
<path d="M14 21H12L13 33L14 21Z" fill="#010202"/>
<rect x="12" y="21" width="2" height="12" rx="1" fill="#010202"/>
<circle cx="13" cy="33" r="2" fill="#010202"/>
</svg>
