<svg xmlns="http://www.w3.org/2000/svg" xmlns:xlink="http://www.w3.org/1999/xlink" version="1.1" width="256" height="256" viewBox="0 0 256 256" xml:space="preserve">
  <desc>Created with Fabric.js 1.7.22</desc>
  <g transform="translate(128 128) scale(0.87 0.87)" style="">
    <g style="stroke: none; stroke-width: 0; stroke-dasharray: none; stroke-linecap: butt; stroke-linejoin: miter; stroke-miterlimit: 10; fill: none; fill-rule: nonzero; opacity: 1;" transform="translate(-144.89999999999998 -144.90000000000003) scale(3.22 3.22)" >
      <path d="M 45 0 C 32.957 0 23.159 9.798 23.159 21.841 c 0 11.369 8.732 20.732 19.841 21.746 V 88 c 0 1.104 0.896 2 2 2 s 2 -0.896 2 -2 V 43.587 c 11.109 -1.014 19.841 -10.377 19.841 -21.746 C 66.841 9.798 57.043 0 45 0 z M 50.863 20.5 c -3.032 0 -5.5 -2.467 -5.5 -5.5 c 0 -3.033 2.467 -5.5 5.5 -5.5 c 3.032 0 5.5 2.467 5.5 5.5 C 56.364 18.033 53.896 20.5 50.863 20.5 z" style="stroke: none; stroke-width: 1; stroke-dasharray: none; stroke-linecap: butt; stroke-linejoin: miter; stroke-miterlimit: 10; fill: rgb(0,0,0); fill-rule: nonzero; opacity: 1;" transform=" matrix(1 0 0 1 0 0) " stroke-linecap="round" />
    </g>
  </g>
</svg>