<svg width="27" height="27" viewBox="0 0 27 27" fill="none" xmlns="http://www.w3.org/2000/svg">
<path d="M13.5 27C20.9558 27 27 20.9558 27 13.5C27 6.04416 20.9558 0 13.5 0C6.04416 0 0 6.04416 0 13.5C0 20.9558 6.04416 27 13.5 27Z" fill="black"/>
<g clip-path="url(#clip0_1514:13771)">
<path d="M13.5 22C13.2 22 13 21.8 13 21.5V5.5C13 5.2 13.2 5 13.5 5C13.8 5 14 5.2 14 5.5V21.5C14 21.8 13.8 22 13.5 22Z" fill="white"/>
<path d="M18.5002 10.0004C18.4002 10.0004 18.3002 10.0004 18.2002 9.90039L13.5002 6.10039L8.80023 9.90039C8.60023 10.1004 8.30023 10.0004 8.10023 9.80039C7.90023 9.60039 8.00023 9.30039 8.20023 9.10039L13.2002 5.10039C13.4002 5.00039 13.6002 5.00039 13.8002 5.10039L18.8002 9.10039C19.0002 9.30039 19.0002 9.60039 18.9002 9.80039C18.8002 9.90039 18.6002 10.0004 18.5002 10.0004Z" fill="white"/>
</g>
<defs>
<clipPath id="clip0_1514:13771">
<rect width="11" height="17" fill="white" transform="translate(8 5)"/>
</clipPath>
</defs>
</svg>

