<svg width="84" height="22" viewBox="0 0 84 22" fill="none" xmlns="http://www.w3.org/2000/svg">
<line x1="20" y1="10.5" x2="34" y2="10.5" stroke="#B1B8C1"/>
<line x1="52" y1="10.5" x2="66" y2="10.5" stroke="#B1B8C1"/>
<circle cx="75" cy="11" r="8.5" stroke="#B1B8C1"/>
<path d="M75.0777 11C75.8111 11.04 76.3677 11.24 76.7477 11.6C77.1344 11.9533 77.3277 12.4167 77.3277 12.99C77.3277 13.39 77.2311 13.7467 77.0377 14.06C76.8444 14.3667 76.5577 14.61 76.1777 14.79C75.7977 14.97 75.3344 15.06 74.7877 15.06C74.2811 15.06 73.8011 14.98 73.3477 14.82C72.9011 14.6533 72.5411 14.4333 72.2677 14.16L72.6177 13.59C72.8511 13.83 73.1611 14.0267 73.5477 14.18C73.9344 14.3267 74.3477 14.4 74.7877 14.4C75.3611 14.4 75.8044 14.2767 76.1177 14.03C76.4311 13.7767 76.5877 13.43 76.5877 12.99C76.5877 12.5567 76.4311 12.2167 76.1177 11.97C75.8044 11.7233 75.3311 11.6 74.6977 11.6H74.1977V11.07L76.1377 8.64H72.5577V8H77.0577V8.51L75.0777 11Z" fill="#B1B8C1"/>
<circle cx="43" cy="11" r="8.5" stroke="#B1B8C1"/>
<path d="M45.4582 14.36V15H40.5482V14.49L43.4582 11.64C43.8249 11.28 44.0715 10.97 44.1982 10.71C44.3315 10.4433 44.3982 10.1767 44.3982 9.91C44.3982 9.49667 44.2549 9.17667 43.9682 8.95C43.6882 8.71667 43.2849 8.6 42.7582 8.6C41.9382 8.6 41.3015 8.86 40.8482 9.38L40.3382 8.94C40.6115 8.62 40.9582 8.37333 41.3782 8.2C41.8049 8.02667 42.2849 7.94 42.8182 7.94C43.5315 7.94 44.0949 8.11 44.5082 8.45C44.9282 8.78333 45.1382 9.24333 45.1382 9.83C45.1382 10.19 45.0582 10.5367 44.8982 10.87C44.7382 11.2033 44.4349 11.5867 43.9882 12.02L41.6082 14.36H45.4582Z" fill="#B1B8C1"/>
<circle cx="11" cy="11" r="10.5" fill="white" stroke="#174AFF"/>
<circle cx="11" cy="11" r="9" fill="#174AFF"/>
<path d="M11.6534 8V15H10.9334V8.64H9.28336V8H11.6534Z" fill="white"/>
</svg>
