<svg width="79" height="19" viewBox="0 0 79 19" fill="none" xmlns="http://www.w3.org/2000/svg">
<path d="M34.6719 7.69438C34.1325 4.57422 31.2827 3.39042 28.0884 3.38478C24.5381 3.37914 21.4031 4.83353 21.3975 8.79362C21.3918 12.7565 24.5212 14.2194 28.0742 14.225C30.1332 14.2278 32.1583 13.8586 33.4094 12.6748L31.5313 10.6652C30.5625 11.7052 28.9865 11.8659 28.0771 11.863C26.7101 11.8602 25.473 11.3162 25.055 9.92105L31.1048 9.92951L34.6691 9.93515H34.7623L34.7651 8.81335C34.7651 8.41594 34.7341 8.04388 34.6719 7.69438ZM25.0578 7.68029C25.4787 6.28509 26.7186 5.74393 28.0855 5.74675C29.4525 5.74956 30.6896 6.29355 31.1076 7.68874L25.0578 7.68029Z" fill="#010202"/>
<path d="M54.8567 3.93992L51.1963 3.93457L51.1817 13.8729L54.8421 13.8782L54.8567 3.93992Z" fill="#010202"/>
<path d="M54.8615 0.00527098L51.2012 0L51.1972 2.63537L54.8576 2.64064L54.8615 0.00527098Z" fill="#010202"/>
<path d="M65.0282 6.13857L65.0311 3.8978L62.5343 3.89498L62.54 0.512695H61.4357L56.9873 5.03369V6.12729L58.874 6.13011L58.8683 10.8597C58.8655 13.4499 60.7126 13.8868 61.495 13.8896L65.0198 13.8953L65.0226 11.1133L63.6104 11.1105C62.749 11.1077 62.5259 10.8653 62.5259 10.3862L62.5315 6.13575L65.0282 6.13857Z" fill="#010202"/>
<path d="M75.303 3.68652L72.9446 11.5785L70.6767 3.91483L66.9824 3.90919L69.9339 13.8869L72.2527 13.8926L70.7275 18.9942L74.4218 18.9998L79 3.69216L75.303 3.68652Z" fill="#010202"/>
<path d="M43.3788 11.9372C41.6927 11.9343 40.2042 11.1085 40.2071 8.87337C40.2099 6.63824 41.7012 5.81522 43.3873 5.81804C44.7543 5.82085 45.9914 6.36484 46.4094 7.76003L49.7732 6.99338C48.9258 4.45385 46.302 3.46171 43.3901 3.45607C39.8399 3.45043 36.7049 4.90482 36.6992 8.86491C36.6936 12.8278 39.823 14.2907 43.3732 14.2963C46.2851 14.3019 48.9117 13.3154 49.7675 10.7787L46.4037 10.0008C45.9829 11.3988 44.7458 11.9372 43.3788 11.9372Z" fill="#010202"/>
<path d="M16.7795 3.80762L14.3195 9.63361L12.204 3.80762H11.9753H8.91366H8.68489L6.51014 9.79427L3.97952 3.80762H0L4.22241 13.8023H5.05559H8.20192H8.34314L10.4445 8.02138L12.543 13.8023H12.5571H15.8333H16.5366L20.7618 3.80762H16.7795Z" fill="#010202"/>
</svg>
