<svg width="77" height="17" viewBox="0 0 77 17" fill="none" xmlns="http://www.w3.org/2000/svg">
<path d="M36.5635 10.374L33.8633 10.3701L33.8603 12.375L36.5605 12.3789L36.5635 10.374Z" fill="#010202"/>
<path d="M31.7509 6.88432C31.2569 4.09258 28.6472 3.03338 25.722 3.02833C22.4708 3.02329 19.5999 4.32459 19.5947 7.86786C19.5896 11.4136 22.4553 12.7225 25.709 12.7276C27.5946 12.7301 29.449 12.3997 30.5948 11.3405L28.8748 9.5424C27.9877 10.473 26.5445 10.6167 25.7116 10.6142C24.4598 10.6117 23.3269 10.125 22.9442 8.87662L28.4843 8.88418L31.7484 8.88923H31.8337L31.8363 7.88551C31.8363 7.52992 31.8078 7.19703 31.7509 6.88432ZM22.9467 6.87171C23.3321 5.62337 24.4676 5.13916 25.7194 5.14169C26.9712 5.14421 28.1041 5.63093 28.4869 6.87927L22.9467 6.87171Z" fill="#010202"/>
<path d="M54.8911 3.5253L51.5391 3.52051L51.5257 12.4127L54.8777 12.4175L54.8911 3.5253Z" fill="#010202"/>
<path d="M54.8969 0.00480727L51.5449 0L51.5414 2.35797L54.8934 2.36278L54.8969 0.00480727Z" fill="#010202"/>
<path d="M64.2054 5.49269L64.2079 3.48778L61.9215 3.48526L61.9267 0.458984H60.9154L56.8418 4.50411V5.48261L58.5695 5.48513L58.5644 9.71687C58.5618 12.0345 60.2533 12.4254 60.9697 12.4279L64.1976 12.433L64.2002 9.94384L62.907 9.94132C62.1181 9.9388 61.9138 9.72192 61.9138 9.29319L61.919 5.49017L64.2054 5.49269Z" fill="#010202"/>
<path d="M73.6152 3.29883L71.4556 10.3601L69.3787 3.5031L65.9956 3.49806L68.6984 12.4256L70.8219 12.4306L69.4252 16.9953L72.8083 17.0003L77.0009 3.30387L73.6152 3.29883Z" fill="#010202"/>
<path d="M44.3806 10.6802C42.8365 10.6777 41.4734 9.93877 41.476 7.9389C41.4786 5.93904 42.8442 5.20264 44.3883 5.20516C45.6402 5.20768 46.773 5.69441 47.1558 6.94275L50.2363 6.25679C49.4603 3.98456 47.0575 3.09686 44.3909 3.09181C41.1398 3.08677 38.2689 4.38807 38.2637 7.93134C38.2585 11.4771 41.1243 12.786 44.3754 12.791C47.042 12.7961 49.4474 11.9134 50.2311 9.64371L47.1506 8.94766C46.7653 10.1985 45.6324 10.6802 44.3806 10.6802Z" fill="#010202"/>
<path d="M15.366 3.40723L13.1132 8.61999L11.176 3.40723H10.9665H8.16277H7.95327L5.96172 8.76374L3.64428 3.40723H0L3.86671 12.3499H4.62971H7.51099H7.64031L9.56461 7.17746L11.4863 12.3499H11.4993H14.4995H15.1435L19.0128 3.40723H15.366Z" fill="#010202"/>
</svg>
