<svg width="16" height="15" viewBox="0 0 16 15" fill="none" xmlns="http://www.w3.org/2000/svg">
<g clip-path="url(#clip0_2150:5056)">
<path d="M0.749023 3.75C0.405273 3.75 0.124023 4.03125 0.124023 4.375V6.875H0.130273L0.124023 12.5C0.124023 13.1875 0.686523 13.75 1.37402 13.75H11.999C12.3428 13.75 12.624 13.4688 12.624 13.125C12.624 12.7812 12.3428 12.5 11.999 12.5H1.99902C1.65527 12.5 1.37402 12.2188 1.37402 11.875V4.375C1.37402 4.03125 1.09277 3.75 0.749023 3.75ZM13.874 2.5H8.87402L7.99277 1.61875C7.75527 1.38125 7.43652 1.25 7.10527 1.25H3.87402C3.18652 1.25 2.63027 1.8125 2.63027 2.5L2.62402 10C2.62402 10.6875 3.18652 11.25 3.87402 11.25H13.874C14.5615 11.25 15.124 10.6875 15.124 10V3.75C15.124 3.0625 14.5615 2.5 13.874 2.5ZM4.87402 8.875L7.06777 5.95C7.19277 5.7875 7.43652 5.78125 7.56777 5.94375L9.50527 8.4375L10.8178 6.85625C10.9428 6.7 11.1803 6.70625 11.3053 6.8625L12.8615 8.8625C13.024 9.06875 12.874 9.36875 12.6178 9.36875H5.12402C4.86777 9.375 4.71777 9.08125 4.87402 8.875Z" fill="black"/>
</g>
<defs>
<clipPath id="clip0_2150:5056">
<rect width="15" height="15" fill="white" transform="translate(0.124023)"/>
</clipPath>
</defs>
</svg>
