<svg width="20" height="20" viewBox="0 0 20 20" fill="none" xmlns="http://www.w3.org/2000/svg">
<path d="M10 6.66634C8.15834 6.66634 6.66668 8.15801 6.66668 9.99967C6.66668 11.8413 8.15834 13.333 10 13.333C11.8417 13.333 13.3333 11.8413 13.3333 9.99967C13.3333 8.15801 11.8417 6.66634 10 6.66634ZM17.45 9.16634C17.0667 5.69134 14.3083 2.93301 10.8333 2.54967V0.833008H9.16668V2.54967C5.69168 2.93301 2.93334 5.69134 2.55001 9.16634H0.833344V10.833H2.55001C2.93334 14.308 5.69168 17.0663 9.16668 17.4497V19.1663H10.8333V17.4497C14.3083 17.0663 17.0667 14.308 17.45 10.833H19.1667V9.16634H17.45ZM10 15.833C6.77501 15.833 4.16668 13.2247 4.16668 9.99967C4.16668 6.77467 6.77501 4.16634 10 4.16634C13.225 4.16634 15.8333 6.77467 15.8333 9.99967C15.8333 13.2247 13.225 15.833 10 15.833Z" fill="black"/>
</svg>
