<svg width="24" height="24" viewBox="0 0 24 24" fill="none" xmlns="http://www.w3.org/2000/svg">
<path d="M12 8C9.8 8 8 9.8 8 12C8 14.2 9.8 16 11.9 16.1C14.1 16.1 15.9 14.4 16 12.2C16.1 9.9 14.3 8 12 8Z" fill="black"/>
<path d="M19 2H5C3.3 2 2 3.3 2 5V19C2 20.7 3.3 22 5 22H19C20.7 22 22 20.7 22 19V5C22 3.3 20.7 2 19 2ZM12 18C8.7 18 6 15.2 6 11.9C6 8.7 8.8 6 12 6C15.3 6 18 8.8 18 12.1C18 15.3 15.2 18 12 18ZM18 7C17.4 7 17 6.5 17 6C17 5.4 17.4 5 18 5C18.6 5 19 5.4 19 6C19 6.6 18.6 7 18 7Z" fill="black"/>
</svg>
