<svg width="27" height="27" viewBox="0 0 27 27" fill="none" xmlns="http://www.w3.org/2000/svg">
<path d="M13.5 27C20.9558 27 27 20.9558 27 13.5C27 6.04416 20.9558 0 13.5 0C6.04416 0 0 6.04416 0 13.5C0 20.9558 6.04416 27 13.5 27Z" fill="black"/>
<g clip-path="url(#clip0_1979:5602)">
<path d="M13.5 22C13.2 22 13 21.8 13 21.5V5.5C13 5.2 13.2 5 13.5 5C13.8 5 14 5.2 14 5.5V21.5C14 21.8 13.8 22 13.5 22Z" fill="white"/>
<path d="M18.4993 10.0004C18.3993 10.0004 18.2993 10.0004 18.1993 9.90039L13.4993 6.10039L8.79925 9.90039C8.59925 10.1004 8.29925 10.0004 8.09925 9.80039C7.89925 9.60039 7.99925 9.30039 8.19925 9.10039L13.1993 5.10039C13.3993 5.00039 13.5993 5.00039 13.7993 5.10039L18.7993 9.10039C18.9993 9.30039 18.9993 9.60039 18.8993 9.80039C18.7993 9.90039 18.5993 10.0004 18.4993 10.0004Z" fill="white"/>
</g>
<defs>
<clipPath id="clip0_1979:5602">
<rect width="11" height="17" fill="white" transform="translate(8 5)"/>
</clipPath>
</defs>
</svg>
