<svg width="84" height="22" viewBox="0 0 84 22" fill="none" xmlns="http://www.w3.org/2000/svg">
<line x1="18" y1="10.5" x2="32" y2="10.5" stroke="#174AFF"/>
<line x1="50" y1="10.5" x2="64" y2="10.5" stroke="#174AFF"/>
<circle cx="73" cy="11" r="10.5" fill="white" stroke="#174AFF"/>
<circle cx="73" cy="11" r="9" fill="#174AFF"/>
<path d="M73.0777 11C73.8111 11.04 74.3677 11.24 74.7477 11.6C75.1344 11.9533 75.3277 12.4167 75.3277 12.99C75.3277 13.39 75.2311 13.7467 75.0377 14.06C74.8444 14.3667 74.5577 14.61 74.1777 14.79C73.7977 14.97 73.3344 15.06 72.7877 15.06C72.2811 15.06 71.8011 14.98 71.3477 14.82C70.9011 14.6533 70.5411 14.4333 70.2677 14.16L70.6177 13.59C70.8511 13.83 71.1611 14.0267 71.5477 14.18C71.9344 14.3267 72.3477 14.4 72.7877 14.4C73.3611 14.4 73.8044 14.2767 74.1177 14.03C74.4311 13.7767 74.5877 13.43 74.5877 12.99C74.5877 12.5567 74.4311 12.2167 74.1177 11.97C73.8044 11.7233 73.3311 11.6 72.6977 11.6H72.1977V11.07L74.1377 8.64H70.5577V8H75.0577V8.51L73.0777 11Z" fill="white"/>
<circle cx="41" cy="11" r="9" fill="#174AFF"/>
<path d="M43.4582 14.36V15H38.5482V14.49L41.4582 11.64C41.8249 11.28 42.0715 10.97 42.1982 10.71C42.3315 10.4433 42.3982 10.1767 42.3982 9.91C42.3982 9.49667 42.2549 9.17667 41.9682 8.95C41.6882 8.71667 41.2849 8.6 40.7582 8.6C39.9382 8.6 39.3015 8.86 38.8482 9.38L38.3382 8.94C38.6115 8.62 38.9582 8.37333 39.3782 8.2C39.8049 8.02667 40.2849 7.94 40.8182 7.94C41.5315 7.94 42.0949 8.11 42.5082 8.45C42.9282 8.78333 43.1382 9.24333 43.1382 9.83C43.1382 10.19 43.0582 10.5367 42.8982 10.87C42.7382 11.2033 42.4349 11.5867 41.9882 12.02L39.6082 14.36H43.4582Z" fill="white"/>
<circle cx="9" cy="11" r="9" fill="#174AFF"/>
<path d="M9.65336 8V15H8.93336V8.64H7.28336V8H9.65336Z" fill="white"/>
</svg>
