<svg width="44" height="44" viewBox="0 0 44 44" fill="none" xmlns="http://www.w3.org/2000/svg">
<path fill-rule="evenodd" clip-rule="evenodd" d="M22 3.66699C11.88 3.66699 3.66663 11.8803 3.66663 22.0003C3.66663 32.1203 11.88 40.3337 22 40.3337C32.12 40.3337 40.3333 32.1203 40.3333 22.0003C40.3333 11.8803 32.12 3.66699 22 3.66699ZM22 9.16699C25.0433 9.16699 27.5 11.6237 27.5 14.667C27.5 17.7103 25.0433 20.167 22 20.167C18.9566 20.167 16.5 17.7103 16.5 14.667C16.5 11.6237 18.9566 9.16699 22 9.16699ZM11 29.297C13.365 32.8537 17.4166 35.2003 22 35.2003C26.5833 35.2003 30.635 32.8537 33 29.297C32.945 25.6487 25.6483 23.6503 22 23.6503C18.3333 23.6503 11.055 25.6487 11 29.297Z" fill="black" fill-opacity="0.54"/>
</svg>
