<svg width="11" height="17" viewBox="0 0 9 17" fill="none" xmlns="http://www.w3.org/2000/svg">
<g>
<path d="M5.5 17C5.2 17 5 16.8 5 16.5V0.5C5 0.2 5.2 0 5.5 0C5.8 0 6 0.2 6 0.5V16.5C6 16.8 5.8 17 5.5 17Z" fill="white"/>
<path d="M10.5002 5.00039C10.4002 5.00039 10.3002 5.00039 10.2002 4.90039L5.50023 1.10039L0.800228 4.90039C0.600228 5.10039 0.300228 5.00039 0.100228 4.80039C-0.0997721 4.60039 0.000227928 4.30039 0.200228 4.10039L5.20023 0.100391C5.40023 0.000390626 5.60023 0.000390626 5.80023 0.100391L10.8002 4.10039C11.0002 4.30039 11.0002 4.60039 10.9002 4.80039C10.8002 4.90039 10.6002 5.00039 10.5002 5.00039Z" fill="white"/>
</g>
</svg>
