<svg width="16" height="16" viewBox="0 0 16 16" fill="none" xmlns="http://www.w3.org/2000/svg">
<path fill-rule="evenodd" clip-rule="evenodd" d="M7.99992 1.33301C4.31992 1.33301 1.33325 4.31967 1.33325 7.99967C1.33325 11.6797 4.31992 14.6663 7.99992 14.6663C11.6799 14.6663 14.6666 11.6797 14.6666 7.99967C14.6666 4.31967 11.6799 1.33301 7.99992 1.33301ZM11.2666 10.3263L10.3333 11.2597C10.1999 11.393 9.99325 11.393 9.85992 11.2597L7.58659 8.98634C6.77325 9.27301 5.82659 9.09967 5.17325 8.44634C4.43325 7.70634 4.30659 6.58634 4.77992 5.71301L6.34659 7.27967L7.28659 6.33967L5.71992 4.77967C6.59992 4.30634 7.71325 4.43301 8.45325 5.17301C9.10659 5.82634 9.27992 6.77301 8.99325 7.58634L11.2666 9.85967C11.3933 9.98634 11.3933 10.1997 11.2666 10.3263Z" fill="black"/>
</svg>
