<svg width="320" height="148" viewBox="0 0 320 148" fill="none" xmlns="http://www.w3.org/2000/svg">
<rect width="320" height="148" fill="#F0F4F8"/>
<g filter="url(#filter0_ddd_1662:18629)">
<path d="M190 101C190 99.3431 191.343 98 193 98H298C299.657 98 301 99.3431 301 101V127C301 128.657 299.657 130 298 130H193C191.343 130 190 128.657 190 127V101Z" fill="white"/>
<path d="M226.92 116.9V119.49H225.72V118H220.35V119.49H219.14L219.15 116.9H219.45C219.89 116.88 220.197 116.557 220.37 115.93C220.55 115.297 220.66 114.393 220.7 113.22L220.78 111H225.91V116.9H226.92ZM221.84 113.34C221.807 114.247 221.733 115.003 221.62 115.61C221.507 116.21 221.327 116.64 221.08 116.9H224.63V112.1H221.89L221.84 113.34ZM230.286 118.07C229.746 118.07 229.26 117.953 228.826 117.72C228.393 117.487 228.053 117.163 227.806 116.75C227.566 116.33 227.446 115.857 227.446 115.33C227.446 114.803 227.566 114.333 227.806 113.92C228.053 113.507 228.393 113.183 228.826 112.95C229.26 112.717 229.746 112.6 230.286 112.6C230.833 112.6 231.323 112.717 231.756 112.95C232.19 113.183 232.526 113.507 232.766 113.92C233.013 114.333 233.136 114.803 233.136 115.33C233.136 115.857 233.013 116.33 232.766 116.75C232.526 117.163 232.19 117.487 231.756 117.72C231.323 117.953 230.833 118.07 230.286 118.07ZM230.286 117C230.746 117 231.126 116.847 231.426 116.54C231.726 116.233 231.876 115.83 231.876 115.33C231.876 114.83 231.726 114.427 231.426 114.12C231.126 113.813 230.746 113.66 230.286 113.66C229.826 113.66 229.446 113.813 229.146 114.12C228.853 114.427 228.706 114.83 228.706 115.33C228.706 115.83 228.853 116.233 229.146 116.54C229.446 116.847 229.826 117 230.286 117ZM240.013 116.94V119.19H238.843V118H234.723V119.19H233.563V116.94H233.813C234.153 116.927 234.383 116.71 234.503 116.29C234.629 115.863 234.713 115.263 234.753 114.49L234.823 112.66H239.223V116.94H240.013ZM235.893 114.58C235.866 115.193 235.816 115.693 235.743 116.08C235.669 116.467 235.536 116.753 235.343 116.94H237.973V113.72H235.923L235.893 114.58ZM243.119 112.6C243.906 112.6 244.506 112.79 244.919 113.17C245.339 113.543 245.549 114.11 245.549 114.87V118H244.369V117.35C244.216 117.583 243.996 117.763 243.709 117.89C243.429 118.01 243.089 118.07 242.689 118.07C242.289 118.07 241.939 118.003 241.639 117.87C241.339 117.73 241.106 117.54 240.939 117.3C240.779 117.053 240.699 116.777 240.699 116.47C240.699 115.99 240.876 115.607 241.229 115.32C241.589 115.027 242.152 114.88 242.919 114.88H244.299V114.8C244.299 114.427 244.186 114.14 243.959 113.94C243.739 113.74 243.409 113.64 242.969 113.64C242.669 113.64 242.372 113.687 242.079 113.78C241.792 113.873 241.549 114.003 241.349 114.17L240.859 113.26C241.139 113.047 241.476 112.883 241.869 112.77C242.262 112.657 242.679 112.6 243.119 112.6ZM242.949 117.16C243.262 117.16 243.539 117.09 243.779 116.95C244.026 116.803 244.199 116.597 244.299 116.33V115.71H243.009C242.289 115.71 241.929 115.947 241.929 116.42C241.929 116.647 242.019 116.827 242.199 116.96C242.379 117.093 242.629 117.16 242.949 117.16ZM251.326 113.72H249.456V118H248.206V113.72H246.326V112.66H251.326V113.72ZM252.233 112.66H253.483V116.18L256.433 112.66H257.573V118H256.323V114.48L253.383 118H252.233V112.66ZM269.078 115.32C269.078 116.147 268.801 116.797 268.248 117.27C267.701 117.743 266.918 118.013 265.898 118.08V119.94H264.718V118.09C263.698 118.023 262.914 117.753 262.368 117.28C261.821 116.807 261.548 116.153 261.548 115.32C261.548 114.493 261.821 113.85 262.368 113.39C262.914 112.923 263.698 112.657 264.718 112.59V110.58H265.898V112.59C266.918 112.657 267.701 112.923 268.248 113.39C268.801 113.857 269.078 114.5 269.078 115.32ZM262.778 115.32C262.778 115.833 262.934 116.233 263.248 116.52C263.568 116.807 264.058 116.98 264.718 117.04V113.65C264.058 113.703 263.568 113.87 263.248 114.15C262.934 114.43 262.778 114.82 262.778 115.32ZM265.898 117.04C267.204 116.92 267.858 116.347 267.858 115.32C267.858 114.813 267.694 114.423 267.368 114.15C267.048 113.87 266.558 113.703 265.898 113.65V117.04ZM272.669 118.07C272.129 118.07 271.643 117.953 271.209 117.72C270.776 117.487 270.436 117.163 270.189 116.75C269.949 116.33 269.829 115.857 269.829 115.33C269.829 114.803 269.949 114.333 270.189 113.92C270.436 113.507 270.776 113.183 271.209 112.95C271.643 112.717 272.129 112.6 272.669 112.6C273.216 112.6 273.706 112.717 274.139 112.95C274.573 113.183 274.909 113.507 275.149 113.92C275.396 114.333 275.519 114.803 275.519 115.33C275.519 115.857 275.396 116.33 275.149 116.75C274.909 117.163 274.573 117.487 274.139 117.72C273.706 117.953 273.216 118.07 272.669 118.07ZM272.669 117C273.129 117 273.509 116.847 273.809 116.54C274.109 116.233 274.259 115.83 274.259 115.33C274.259 114.83 274.109 114.427 273.809 114.12C273.509 113.813 273.129 113.66 272.669 113.66C272.209 113.66 271.829 113.813 271.529 114.12C271.236 114.427 271.089 114.83 271.089 115.33C271.089 115.83 271.236 116.233 271.529 116.54C271.829 116.847 272.209 117 272.669 117ZM280.789 113.72H278.919V118H277.669V113.72H275.789V112.66H280.789V113.72ZM283.841 118.07C283.301 118.07 282.814 117.953 282.381 117.72C281.948 117.487 281.608 117.163 281.361 116.75C281.121 116.33 281.001 115.857 281.001 115.33C281.001 114.803 281.121 114.333 281.361 113.92C281.608 113.507 281.948 113.183 282.381 112.95C282.814 112.717 283.301 112.6 283.841 112.6C284.388 112.6 284.878 112.717 285.311 112.95C285.744 113.183 286.081 113.507 286.321 113.92C286.568 114.333 286.691 114.803 286.691 115.33C286.691 115.857 286.568 116.33 286.321 116.75C286.081 117.163 285.744 117.487 285.311 117.72C284.878 117.953 284.388 118.07 283.841 118.07ZM283.841 117C284.301 117 284.681 116.847 284.981 116.54C285.281 116.233 285.431 115.83 285.431 115.33C285.431 114.83 285.281 114.427 284.981 114.12C284.681 113.813 284.301 113.66 283.841 113.66C283.381 113.66 283.001 113.813 282.701 114.12C282.408 114.427 282.261 114.83 282.261 115.33C282.261 115.83 282.408 116.233 282.701 116.54C283.001 116.847 283.381 117 283.841 117Z" fill="#010202"/>
<path d="M200 113.117V113.882H213V113.117H200Z" fill="black"/>
<path d="M206.118 120L206.882 120L206.882 107L206.118 107L206.118 120Z" fill="black"/>
</g>
<g clip-path="url(#clip0_1662:18629)">
<path d="M23.0625 100.875C22.0656 100.875 21.25 101.691 21.25 102.688V109.938H21.2681L21.25 126.25C21.25 128.244 22.8812 129.875 24.875 129.875H55.6875C56.6844 129.875 57.5 129.059 57.5 128.062C57.5 127.066 56.6844 126.25 55.6875 126.25H26.6875C25.6906 126.25 24.875 125.434 24.875 124.438V102.688C24.875 101.691 24.0594 100.875 23.0625 100.875ZM61.125 97.25H46.625L44.0694 94.6944C43.3806 94.0056 42.4562 93.625 41.4956 93.625H32.125C30.1313 93.625 28.5181 95.2562 28.5181 97.25L28.5 119C28.5 120.994 30.1313 122.625 32.125 122.625H61.125C63.1188 122.625 64.75 120.994 64.75 119V100.875C64.75 98.8812 63.1188 97.25 61.125 97.25ZM35.025 115.737L41.3869 107.255C41.7494 106.784 42.4562 106.766 42.8369 107.237L48.4556 114.469L52.2619 109.883C52.6244 109.43 53.3131 109.448 53.6756 109.901L58.1887 115.701C58.66 116.299 58.225 117.169 57.4819 117.169H35.75C35.0069 117.188 34.5719 116.336 35.025 115.737Z" fill="#B1B8C1"/>
</g>
<defs>
<filter id="filter0_ddd_1662:18629" x="187" y="96" width="117" height="38" filterUnits="userSpaceOnUse" color-interpolation-filters="sRGB">
<feFlood flood-opacity="0" result="BackgroundImageFix"/>
<feColorMatrix in="SourceAlpha" type="matrix" values="0 0 0 0 0 0 0 0 0 0 0 0 0 0 0 0 0 0 127 0" result="hardAlpha"/>
<feOffset dy="1"/>
<feGaussianBlur stdDeviation="1.5"/>
<feColorMatrix type="matrix" values="0 0 0 0 0.537255 0 0 0 0 0.588235 0 0 0 0 0.623529 0 0 0 0.1 0"/>
<feBlend mode="normal" in2="BackgroundImageFix" result="effect1_dropShadow_1662:18629"/>
<feColorMatrix in="SourceAlpha" type="matrix" values="0 0 0 0 0 0 0 0 0 0 0 0 0 0 0 0 0 0 127 0" result="hardAlpha"/>
<feOffset dy="2"/>
<feGaussianBlur stdDeviation="1"/>
<feColorMatrix type="matrix" values="0 0 0 0 0.537255 0 0 0 0 0.588235 0 0 0 0 0.623529 0 0 0 0.1 0"/>
<feBlend mode="normal" in2="effect1_dropShadow_1662:18629" result="effect2_dropShadow_1662:18629"/>
<feColorMatrix in="SourceAlpha" type="matrix" values="0 0 0 0 0 0 0 0 0 0 0 0 0 0 0 0 0 0 127 0" result="hardAlpha"/>
<feOffset/>
<feGaussianBlur stdDeviation="1"/>
<feColorMatrix type="matrix" values="0 0 0 0 0.537255 0 0 0 0 0.588235 0 0 0 0 0.623529 0 0 0 0.1 0"/>
<feBlend mode="normal" in2="effect2_dropShadow_1662:18629" result="effect3_dropShadow_1662:18629"/>
<feBlend mode="normal" in="SourceGraphic" in2="effect3_dropShadow_1662:18629" result="shape"/>
</filter>
<clipPath id="clip0_1662:18629">
<rect width="43.5" height="43.5" fill="white" transform="translate(21.25 90)"/>
</clipPath>
</defs>
</svg>
