<svg width="14" height="14" viewBox="0 0 14 14" fill="none" xmlns="http://www.w3.org/2000/svg">
<g clip-path="url(#clip0_2739_694)">
<path d="M11.6663 0.333984H2.33301C1.19967 0.333984 0.333008 1.20065 0.333008 2.33398V11.6673C0.333008 12.8007 1.19967 13.6673 2.33301 13.6673H8.39967C8.39967 12.4007 8.39967 11.2007 8.39967 9.93398C8.39967 9.93398 8.39967 9.86732 8.33301 9.86732H7.06634C7.06634 9.86732 6.99967 9.86732 6.99967 9.80065V8.33398C7.39967 8.33398 7.86634 8.33398 8.26634 8.33398C8.33301 8.33398 8.26634 7.06732 8.33301 6.73398C8.33301 6.60065 8.39967 6.40065 8.46634 6.26732C8.59967 5.86732 8.86634 5.53398 9.19967 5.33398C9.53301 5.13398 9.86634 5.06732 10.2663 5.00065C10.333 5.00065 10.3997 5.00065 10.4663 5.00065C10.6663 5.00065 10.8663 5.00065 11.0663 5.00065C11.133 5.00065 11.133 5.00065 11.1997 5.00065C11.333 5.00065 11.4663 5.00065 11.533 5.00065C11.5997 5.00065 11.6663 5.00065 11.6663 5.00065V6.46732C11.5997 6.46732 11.5997 6.46732 11.1997 6.46732H11.133C10.9997 6.46732 10.933 6.46732 10.7997 6.46732C10.733 6.46732 10.5997 6.46732 10.533 6.53398C10.333 6.60065 10.1997 6.66732 10.133 6.86732C10.133 6.93398 10.0663 7.06732 10.0663 7.13398C10.0663 7.46732 10.0663 7.86732 10.0663 8.20065C10.0663 8.20065 10.0663 8.26732 10.133 8.26732H11.5997C11.5997 8.33398 11.5997 8.33398 11.5997 8.40065C11.5997 8.53398 11.5997 8.66732 11.533 8.73398C11.533 8.86732 11.533 8.93398 11.4663 9.06732C11.4663 9.20065 11.4663 9.33398 11.3997 9.40065C11.3997 9.53398 11.3997 9.66732 11.333 9.80065H10.0663C10.0663 9.80065 9.99967 9.80065 9.99967 9.86732V10.734C9.99967 11.734 9.99967 12.6673 9.99967 13.6673H11.6663C12.7997 13.6673 13.6663 12.8007 13.6663 11.6673V2.33398C13.6663 1.20065 12.7997 0.333984 11.6663 0.333984Z" fill="black"/>
</g>
<defs>
<clipPath id="clip0_2739_694">
<rect width="13.3333" height="13.3333" fill="white" transform="translate(0.333008 0.333984)"/>
</clipPath>
</defs>
</svg>
