<svg width="24" height="24" fill="none" xmlns="http://www.w3.org/2000/svg">
  <circle cx="12" cy="12" r="10" fill="black"/>
  <path d="M2 22H12V18H4C5 19 4.5 19.5 4 20L2 22Z" fill="black"/>
  <path d="M8.25 11.0518C8.94036 11.0518 9.5 10.4921 9.5 9.80176C9.5 9.1114 8.94036 8.55176 8.25 8.55176C7.55964 8.55176 7 9.1114 7 9.80176C7 10.4921 7.55964 11.0518 8.25 11.0518Z" fill="white"/>
  <path d="M10.5 9.05176C11.1904 9.05176 11.75 8.49211 11.75 7.80176C11.75 7.1114 11.1904 6.55176 10.5 6.55176C9.80964 6.55176 9.25 7.1114 9.25 7.80176C9.25 8.49211 9.80964 9.05176 10.5 9.05176Z" fill="white"/>
  <path d="M13.5 9.05176C14.1904 9.05176 14.75 8.49211 14.75 7.80176C14.75 7.1114 14.1904 6.55176 13.5 6.55176C12.8096 6.55176 12.25 7.1114 12.25 7.80176C12.25 8.49211 12.8096 9.05176 13.5 9.05176Z" fill="white"/>
  <path d="M15.75 11.0518C16.4404 11.0518 17 10.4921 17 9.80176C17 9.1114 16.4404 8.55176 15.75 8.55176C15.0596 8.55176 14.5 9.1114 14.5 9.80176C14.5 10.4921 15.0596 11.0518 15.75 11.0518Z" fill="white"/>
  <path d="M14.6703 12.4818C14.2353 11.9718 13.8703 11.5368 13.4303 11.0268C13.2003 10.7568 12.9053 10.4868 12.5553 10.3668C12.5003 10.3468 12.4453 10.3318 12.3903 10.3218C12.2653 10.3018 12.1303 10.3018 12.0003 10.3018C11.8703 10.3018 11.7353 10.3018 11.6053 10.3268C11.5503 10.3368 11.4953 10.3518 11.4403 10.3718C11.0903 10.4918 10.8003 10.7618 10.5653 11.0318C10.1303 11.5418 9.76532 11.9768 9.32532 12.4868C8.67032 13.1418 7.86532 13.8668 8.01532 14.8818C8.16032 15.3918 8.52532 15.8968 9.18032 16.0418C9.54532 16.1168 10.7103 15.8218 11.9503 15.8218H12.0403C13.2803 15.8218 14.4453 16.1118 14.8103 16.0418C15.4653 15.8968 15.8303 15.3868 15.9753 14.8818C16.1303 13.8618 15.3253 13.1368 14.6703 12.4818Z" fill="white"/>
</svg>
