<svg width="14" height="14" viewBox="0 0 14 14" fill="none" xmlns="http://www.w3.org/2000/svg">
<g clip-path="url(#clip0_2739_11538)">
<path d="M6.99967 4.33398C5.53301 4.33398 4.33301 5.53398 4.33301 7.00065C4.33301 8.46732 5.53301 9.66732 6.93301 9.73398C8.39967 9.73398 9.59967 8.60065 9.66634 7.13398C9.73301 5.60065 8.53301 4.33398 6.99967 4.33398Z" fill="black"/>
<path d="M11.6663 0.333984H2.33301C1.19967 0.333984 0.333008 1.20065 0.333008 2.33398V11.6673C0.333008 12.8007 1.19967 13.6673 2.33301 13.6673H11.6663C12.7997 13.6673 13.6663 12.8007 13.6663 11.6673V2.33398C13.6663 1.20065 12.7997 0.333984 11.6663 0.333984ZM6.99967 11.0007C4.79967 11.0007 2.99967 9.13398 2.99967 6.93398C2.99967 4.80065 4.86634 3.00065 6.99967 3.00065C9.19967 3.00065 10.9997 4.86732 10.9997 7.06732C10.9997 9.20065 9.13301 11.0007 6.99967 11.0007ZM10.9997 3.66732C10.5997 3.66732 10.333 3.33398 10.333 3.00065C10.333 2.60065 10.5997 2.33398 10.9997 2.33398C11.3997 2.33398 11.6663 2.60065 11.6663 3.00065C11.6663 3.40065 11.3997 3.66732 10.9997 3.66732Z" fill="black"/>
</g>
<defs>
<clipPath id="clip0_2739_11538">
<rect width="13.3333" height="13.3333" fill="white" transform="translate(0.333008 0.333984)"/>
</clipPath>
</defs>
</svg>
