<svg width="16" height="14" viewBox="0 0 16 14" fill="none" xmlns="http://www.w3.org/2000/svg">
<path d="M13.9566 5.33366H9.76309L10.3944 2.28699L10.4144 2.07366C10.4144 1.80033 10.3014 1.54699 10.122 1.36699L9.41751 0.666992L5.0446 5.06033C4.79871 5.30033 4.6525 5.63366 4.6525 6.00033V12.667C4.6525 13.4003 5.25062 14.0003 5.98165 14.0003H11.9628C12.5144 14.0003 12.9863 13.667 13.1857 13.187L15.1927 8.48699C15.2525 8.33366 15.2857 8.17366 15.2857 8.00033V6.66699C15.2857 5.93366 14.6876 5.33366 13.9566 5.33366ZM0.665039 6.00033H3.32335V14.0003H0.665039V6.00033Z"/>
</svg>
