<svg width="16" height="16" viewBox="0 0 16 16" fill="none" xmlns="http://www.w3.org/2000/svg">
<path d="M2.5 5C2.225 5 2 5.225 2 5.5V7.5H2.005L2 12C2 12.55 2.45 13 3 13H11.5C11.775 13 12 12.775 12 12.5C12 12.225 11.775 12 11.5 12H3.5C3.225 12 3 11.775 3 11.5V5.5C3 5.225 2.775 5 2.5 5ZM13 4H9L8.295 3.295C8.105 3.105 7.85 3 7.585 3H5C4.45 3 4.005 3.45 4.005 4L4 10C4 10.55 4.45 11 5 11H13C13.55 11 14 10.55 14 10V5C14 4.45 13.55 4 13 4ZM5.8 9.1L7.555 6.76C7.655 6.63 7.85 6.625 7.955 6.755L9.505 8.75L10.555 7.485C10.655 7.36 10.845 7.365 10.945 7.49L12.19 9.09C12.32 9.255 12.2 9.495 11.995 9.495H6C5.795 9.5 5.675 9.265 5.8 9.1Z" fill="black"/>
</svg>
