<svg width="12" height="13" viewBox="0 0 12 13" fill="none" xmlns="http://www.w3.org/2000/svg">
<path d="M8 6.33398V2.33398L6 0.333984L4 2.33398V3.66732H0V13.0007H12V6.33398H8ZM2.66667 11.6673H1.33333V10.334H2.66667V11.6673ZM2.66667 9.00065H1.33333V7.66732H2.66667V9.00065ZM2.66667 6.33398H1.33333V5.00065H2.66667V6.33398ZM6.66667 11.6673H5.33333V10.334H6.66667V11.6673ZM6.66667 9.00065H5.33333V7.66732H6.66667V9.00065ZM6.66667 6.33398H5.33333V5.00065H6.66667V6.33398ZM6.66667 3.66732H5.33333V2.33398H6.66667V3.66732ZM10.6667 11.6673H9.33333V10.334H10.6667V11.6673ZM10.6667 9.00065H9.33333V7.66732H10.6667V9.00065Z" fill="black"/>
</svg>
