<svg width="18" height="18" viewBox="0 0 18 18" fill="none" xmlns="http://www.w3.org/2000/svg">
<path d="M2.25 8.85156C3.49264 8.85156 4.5 7.8442 4.5 6.60156C4.5 5.35892 3.49264 4.35156 2.25 4.35156C1.00736 4.35156 0 5.35892 0 6.60156C0 7.8442 1.00736 8.85156 2.25 8.85156Z" fill="#010202"/>
<path d="M6.2998 5.25195C7.54245 5.25195 8.5498 4.24459 8.5498 3.00195C8.5498 1.75931 7.54245 0.751953 6.2998 0.751953C5.05716 0.751953 4.0498 1.75931 4.0498 3.00195C4.0498 4.24459 5.05716 5.25195 6.2998 5.25195Z" fill="#010202"/>
<path d="M11.7002 5.25195C12.9428 5.25195 13.9502 4.24459 13.9502 3.00195C13.9502 1.75931 12.9428 0.751953 11.7002 0.751953C10.4576 0.751953 9.4502 1.75931 9.4502 3.00195C9.4502 4.24459 10.4576 5.25195 11.7002 5.25195Z" fill="#010202"/>
<path d="M15.75 8.85156C16.9926 8.85156 18 7.8442 18 6.60156C18 5.35892 16.9926 4.35156 15.75 4.35156C14.5074 4.35156 13.5 5.35892 13.5 6.60156C13.5 7.8442 14.5074 8.85156 15.75 8.85156Z" fill="#010202"/>
<path d="M13.8068 11.426C13.0238 10.508 12.3668 9.72495 11.5748 8.80695C11.1608 8.32095 10.6298 7.83495 9.99976 7.61895C9.90076 7.58295 9.80176 7.55595 9.70276 7.53795C9.47776 7.50195 9.23476 7.50195 9.00076 7.50195C8.76676 7.50195 8.52376 7.50195 8.28976 7.54695C8.19076 7.56495 8.09176 7.59195 7.99276 7.62795C7.36276 7.84395 6.84076 8.32995 6.41776 8.81595C5.63476 9.73395 4.97776 10.517 4.18576 11.435C3.00676 12.614 1.55776 13.919 1.82776 15.746C2.08876 16.664 2.74576 17.573 3.92476 17.834C4.58176 17.969 6.67876 17.438 8.91076 17.438H9.07276C11.3048 17.438 13.4018 17.96 14.0588 17.834C15.2378 17.573 15.8948 16.655 16.1558 15.746C16.4348 13.91 14.9858 12.605 13.8068 11.426V11.426Z" fill="#010202"/>
</svg>
