<svg width="20" height="20" viewBox="0 0 20 20" fill="none" xmlns="http://www.w3.org/2000/svg">
<g clip-path="url(#clip0_2429_16441)">
<path d="M9.92839 1.66699C5.37764 1.66699 1.6543 5.41699 1.6543 10.0003C1.6543 14.5837 5.37764 18.3337 9.92839 18.3337C14.4791 18.3337 18.2025 14.5837 18.2025 10.0003C18.2025 5.41699 14.4791 1.66699 9.92839 1.66699ZM12.8243 6.66699C13.4862 6.66699 14.0654 7.25033 14.0654 7.91699C14.0654 8.58366 13.4862 9.16699 12.8243 9.16699C12.1624 9.16699 11.5832 8.58366 11.5832 7.91699C11.5832 7.25033 12.1624 6.66699 12.8243 6.66699ZM7.03246 6.66699C7.69438 6.66699 8.27357 7.25033 8.27357 7.91699C8.27357 8.58366 7.69438 9.16699 7.03246 9.16699C6.37053 9.16699 5.79134 8.58366 5.79134 7.91699C5.79134 7.25033 6.37053 6.66699 7.03246 6.66699ZM9.92839 14.5837C8.02535 14.5837 6.37053 13.3337 5.7086 11.667H14.1482C13.4862 13.3337 11.8314 14.5837 9.92839 14.5837Z" fill="#020203"/>
</g>
<defs>
<clipPath id="clip0_2429_16441">
<rect width="19.8578" height="20" fill="white"/>
</clipPath>
</defs>
</svg>
