<svg width="14" height="14" viewBox="0 0 14 14" fill="none" xmlns="http://www.w3.org/2000/svg">
<g clip-path="url(#clip0_2739_10009)">
<path d="M11.6663 0.333984H2.33301C1.19967 0.333984 0.333008 1.20065 0.333008 2.33398V11.6673C0.333008 12.8007 1.19967 13.6673 2.33301 13.6673H11.6663C12.7997 13.6673 13.6663 12.8007 13.6663 11.6673V2.33398C13.6663 1.20065 12.7997 0.333984 11.6663 0.333984ZM10.9997 3.80065L9.66634 10.334C9.66634 10.4673 9.53301 10.534 9.46634 10.6007C9.39967 10.6007 9.39967 10.6007 9.33301 10.6007C9.26634 10.6007 9.19967 10.6007 9.13301 10.534L6.46634 8.40065L9.66634 4.80065L5.73301 8.40065L7.13301 9.26732L6.13301 10.0007C6.06634 10.0673 5.93301 10.0673 5.79967 10.0673C5.66634 10.0007 5.59967 9.93398 5.59967 9.86732L5.06634 7.80065L3.26634 7.13398C3.06634 7.00065 2.99967 6.86732 2.99967 6.73398C2.99967 6.60065 3.06634 6.46732 3.19967 6.40065L10.533 3.40065C10.5997 3.40065 10.6663 3.40065 10.733 3.40065C10.733 3.40065 10.733 3.40065 10.7997 3.40065C10.8663 3.40065 10.933 3.46732 10.933 3.46732C10.933 3.46732 10.933 3.46732 10.9997 3.53398V3.60065C10.9997 3.66732 10.9997 3.73398 10.9997 3.80065Z" fill="black"/>
</g>
<defs>
<clipPath id="clip0_2739_10009">
<rect width="13.3333" height="13.3333" fill="white" transform="translate(0.333008 0.333984)"/>
</clipPath>
</defs>
</svg>
