<svg width="12" height="8" viewBox="0 0 12 8" fill="none" xmlns="http://www.w3.org/2000/svg">
<path d="M8 3.5C8.83 3.5 9.495 2.83 9.495 2C9.495 1.17 8.83 0.5 8 0.5C7.17 0.5 6.5 1.17 6.5 2C6.5 2.83 7.17 3.5 8 3.5ZM4 3.5C4.83 3.5 5.495 2.83 5.495 2C5.495 1.17 4.83 0.5 4 0.5C3.17 0.5 2.5 1.17 2.5 2C2.5 2.83 3.17 3.5 4 3.5ZM4 4.5C2.835 4.5 0.5 5.085 0.5 6.25V7.5H7.5V6.25C7.5 5.085 5.165 4.5 4 4.5ZM8 4.5C7.855 4.5 7.69 4.51 7.515 4.525C8.095 4.945 8.5 5.51 8.5 6.25V7.5H11.5V6.25C11.5 5.085 9.165 4.5 8 4.5Z" fill="black"/>
</svg>
