<svg width="120" height="30" viewBox="0 0 120 30" fill="none" xmlns="http://www.w3.org/2000/svg">
<g clip-path="url(#clip0_2261_13518)">
<path d="M52.6662 11.7522C51.8468 6.98663 47.518 5.17856 42.6658 5.16995C37.2731 5.16134 32.511 7.38269 32.5025 13.4311C32.4939 19.4839 37.2474 21.7181 42.6444 21.7268C45.7719 21.7311 48.848 21.1671 50.7485 19.359L47.8955 16.2896C46.424 17.8781 44.0301 18.1235 42.6487 18.1192C40.5722 18.1149 38.6932 17.2841 38.0582 15.1531L47.2477 15.166L52.6619 15.1746H52.8035L52.8078 13.4613C52.8078 12.8543 52.7606 12.286 52.6662 11.7522ZM38.0625 11.7307C38.7017 9.59973 40.5851 8.77318 42.6616 8.77749C44.738 8.78179 46.6171 9.61265 47.252 11.7436L38.0625 11.7307Z" fill="#010202"/>
<path d="M83.3257 6.01794L77.7656 6.00977L77.7435 21.189L83.3035 21.1972L83.3257 6.01794Z" fill="#010202"/>
<path d="M83.3335 0.00805062L77.7734 0L77.7675 4.02512L83.3275 4.03317L83.3335 0.00805062Z" fill="#010202"/>
<path d="M98.7766 9.37587L98.7808 5.95344L94.9884 5.94913L94.9969 0.783203H93.3195L86.5625 7.68833V9.35865L89.4283 9.36295L89.4197 16.5866C89.4154 20.5429 92.2212 21.2101 93.4096 21.2145L98.7637 21.2231L98.768 16.9741L96.6229 16.9698C95.3144 16.9655 94.9755 16.5953 94.9755 15.8634L94.9841 9.37156L98.7766 9.37587Z" fill="#010202"/>
<path d="M114.384 5.63086L110.802 17.6847L107.357 5.97956L101.745 5.97095L106.228 21.2104L109.751 21.2191L107.434 29.011L113.045 29.0196L120 5.63947L114.384 5.63086Z" fill="#010202"/>
<path d="M65.8928 18.2319C63.3316 18.2276 61.0707 16.9663 61.075 13.5524C61.0793 10.1386 63.3445 8.88158 65.9057 8.88589C67.9821 8.89019 69.8612 9.72105 70.4962 11.852L75.6057 10.681C74.3187 6.80229 70.3331 5.28696 65.91 5.27835C60.5172 5.26974 55.7552 7.49109 55.7466 13.5395C55.738 19.5923 60.4915 21.8265 65.8842 21.8352C70.3074 21.8438 74.2972 20.337 75.5972 16.4626L70.4876 15.2744C69.8483 17.4097 67.9692 18.2319 65.8928 18.2319Z" fill="#010202"/>
<path d="M25.4878 5.81641L21.7511 14.7147L18.5378 5.81641H18.1903H13.5397H13.1922L9.88881 14.9601L6.04483 5.81641H0L6.41379 21.0817H7.67938H12.4586H12.6731L15.865 12.2523L19.0526 21.0817H19.074H24.0506H25.1189L31.537 5.81641H25.4878Z" fill="#010202"/>
</g>
<defs>
<clipPath id="clip0_2261_13518">
<rect width="120" height="29.0196" fill="white"/>
</clipPath>
</defs>
</svg>
